<?xml version="1.0" encoding="utf-8"?>
<!-- Generator: Adobe Illustrator 16.0.0, SVG Export Plug-In . SVG Version: 6.00 Build 0)  -->
<!DOCTYPE svg PUBLIC "-//W3C//DTD SVG 1.1//EN" "http://www.w3.org/Graphics/SVG/1.1/DTD/svg11.dtd">
<svg version="1.1" id="Layer_1" xmlns="http://www.w3.org/2000/svg" xmlns:xlink="http://www.w3.org/1999/xlink" x="0px" y="0px"
	 width="255.435px" height="103.056px" viewBox="0 0 255.435 103.056" enable-background="new 0 0 255.435 103.056"
	 xml:space="preserve">
<g>
	<path fill="#FFFFFF" d="M29.481,62.203c-0.24,0.24-0.536,0.36-0.888,0.36h-9.696v27.936c0,0.801-0.417,1.2-1.248,1.2
		c-0.8,0-1.2-0.399-1.2-1.2V62.563H6.754c-0.354,0-0.648-0.12-0.889-0.36s-0.359-0.535-0.359-0.888c0-0.8,0.415-1.2,1.248-1.2h21.84
		c0.319,0,0.607,0.112,0.863,0.336c0.256,0.225,0.385,0.513,0.385,0.864C29.842,61.667,29.721,61.962,29.481,62.203z"/>
	<path fill="#FFFFFF" d="M48.754,91.651c-0.449,0.224-1.088,0.432-1.92,0.624c-0.832,0.191-1.856,0.399-3.072,0.624
		c-1.217,0.224-2.336,0.384-3.359,0.479c-1.025,0.097-1.984,0.145-2.881,0.145c-1.824,0-3.416-0.161-4.775-0.48
		c-1.361-0.32-2.616-0.896-3.769-1.728c-2.464-1.792-3.696-4.496-3.696-8.112c0-3.392,1.033-5.959,3.097-7.704
		c2.063-1.743,5.079-2.616,9.048-2.616c3.264,0,5.943,0.353,8.04,1.057c2.095,0.704,3.479,1.728,4.151,3.071
		c0.289,0.545,0.433,1.089,0.433,1.633c0,0.736-0.257,1.456-0.769,2.159c-0.863,1.217-2.488,2.232-4.871,3.049
		c-2.385,0.815-5.513,1.224-9.385,1.224c-1.12,0-2.288-0.04-3.504-0.12c-1.217-0.079-2.465-0.199-3.744-0.359
		c0.289,2.111,1.152,3.695,2.592,4.752c0.865,0.64,1.904,1.096,3.121,1.367c1.215,0.272,2.559,0.408,4.031,0.408
		c0.896,0,1.801-0.048,2.713-0.144c0.912-0.097,1.848-0.224,2.808-0.384c2.527-0.48,4.176-0.896,4.944-1.248
		c0.318-0.128,0.623-0.112,0.912,0.048c0.287,0.16,0.495,0.4,0.623,0.72C49.777,90.851,49.521,91.363,48.754,91.651z M31.546,82.531
		c1.231,0.096,2.439,0.144,3.624,0.144c3.391,0,6.24-0.384,8.544-1.151c1.855-0.64,3.056-1.344,3.601-2.112
		c0.191-0.224,0.287-0.479,0.287-0.768c0-0.192-0.048-0.368-0.144-0.528c-0.384-0.735-1.392-1.376-3.024-1.92
		c-1.824-0.607-4.16-0.912-7.008-0.912c-6.017,0-9.248,2.288-9.695,6.864C29.041,82.307,30.313,82.435,31.546,82.531z"/>
	<path fill="#FFFFFF" d="M84.129,91.699c-0.191,0-0.352-0.031-0.48-0.096c-0.479-0.192-0.719-0.576-0.719-1.152
		c0-0.031,0.031-0.176,0.096-0.432c0.352-0.896,0.639-1.696,0.863-2.4c0.576-1.92,0.865-3.68,0.865-5.28
		c0-0.799-0.09-1.567-0.264-2.304c-0.178-0.735-0.441-1.392-0.793-1.968c-1.184-1.855-3.455-2.784-6.816-2.784
		c-2.465,0-4.352,0.513-5.664,1.536c0.512,0.8,0.871,1.648,1.08,2.544c0.209,0.896,0.312,1.904,0.312,3.024
		c0,1.855-0.305,3.792-0.912,5.808c-0.096,0.32-0.225,0.713-0.385,1.176c-0.16,0.465-0.367,1.001-0.623,1.608
		c-0.191,0.479-0.576,0.72-1.152,0.72c-0.191,0-0.353-0.031-0.48-0.096c-0.447-0.192-0.672-0.576-0.672-1.152
		c0-0.031,0.032-0.176,0.097-0.432c0.192-0.448,0.384-0.968,0.575-1.561c0.193-0.592,0.368-1.255,0.529-1.992
		c0.383-1.471,0.576-2.88,0.576-4.224c0-1.056-0.105-1.96-0.312-2.712c-0.209-0.752-0.6-1.447-1.176-2.088
		c-1.312-1.44-3.441-2.16-6.385-2.16c-3.393,0-5.68,0.929-6.863,2.784c-0.354,0.576-0.617,1.232-0.793,1.968
		c-0.176,0.736-0.264,1.505-0.264,2.304c0,1.601,0.288,3.36,0.864,5.28c0.224,0.704,0.511,1.505,0.864,2.4
		c0.063,0.128,0.096,0.288,0.096,0.479c0,0.545-0.24,0.912-0.721,1.104c-0.127,0.064-0.304,0.096-0.527,0.096
		c-0.512,0-0.864-0.24-1.057-0.72c-0.416-0.704-0.848-1.969-1.295-3.792c-0.416-1.696-0.625-3.28-0.625-4.752
		c0-1.12,0.104-2.144,0.312-3.072c0.208-0.928,0.584-1.808,1.128-2.64c1.696-2.561,4.656-3.841,8.88-3.841
		c3.072,0,5.504,0.705,7.297,2.112c1.791-1.407,4.223-2.112,7.295-2.112c4.225,0,7.184,1.28,8.881,3.841
		c0.48,0.736,0.84,1.607,1.08,2.615c0.24,1.009,0.359,2.024,0.359,3.049c0,1.855-0.305,3.792-0.912,5.808
		c-0.191,0.608-0.527,1.536-1.008,2.784C85.09,91.458,84.705,91.699,84.129,91.699z"/>
	<path fill="#FFFFFF" d="M109.76,91.315c-1.088,0.799-2.375,1.368-3.863,1.704s-3.096,0.504-4.824,0.504
		c-1.344,0-2.832-0.112-4.463-0.336c-1.633-0.225-3.312-0.576-5.041-1.057v7.488c0,0.8-0.4,1.2-1.199,1.2
		c-0.32,0-0.609-0.112-0.865-0.336c-0.256-0.225-0.383-0.513-0.383-0.864V75.907l0.096-0.288l0.047-0.24l0.098-0.191l0.143-0.145
		l0.193-0.144l0.24-0.145c1.279-0.447,3.006-0.863,5.184-1.248c1.119-0.223,2.191-0.384,3.215-0.479
		c1.025-0.096,1.984-0.145,2.881-0.145c1.824,0,3.416,0.161,4.775,0.48c1.359,0.32,2.617,0.896,3.768,1.728
		c2.465,1.793,3.697,4.497,3.697,8.112C113.457,86.819,112.225,89.523,109.76,91.315z M108.32,77.059
		c-0.863-0.64-1.896-1.096-3.096-1.368c-1.199-0.271-2.52-0.408-3.961-0.408c-1.76,0-3.664,0.192-5.711,0.576
		c-0.607,0.128-1.24,0.264-1.896,0.408c-0.656,0.144-1.352,0.328-2.088,0.552v12.768c0.385,0.129,0.809,0.24,1.271,0.336
		c0.465,0.097,0.969,0.209,1.514,0.336c2.688,0.576,5.008,0.864,6.959,0.864c1.439,0,2.752-0.136,3.936-0.408
		c1.184-0.271,2.209-0.728,3.072-1.367c1.793-1.312,2.688-3.36,2.688-6.145S110.113,78.372,108.32,77.059z"/>
	<path fill="#FFFFFF" d="M136.617,90.907c-2.064,1.744-5.098,2.616-9.098,2.616c-3.967,0-6.982-0.872-9.047-2.616
		s-3.096-4.312-3.096-7.704c0-3.392,1.031-5.959,3.096-7.704c2.064-1.743,5.08-2.616,9.047-2.616c3.969,0,6.992,0.881,9.072,2.641
		s3.121,4.319,3.121,7.68C139.713,86.595,138.68,89.163,136.617,90.907z M127.52,75.283c-6.463,0-9.695,2.64-9.695,7.92
		c0,5.249,3.232,7.872,9.695,7.872c6.496,0,9.744-2.623,9.744-7.872C137.264,77.922,134.016,75.283,127.52,75.283z"/>
	<path fill="#FFFFFF" d="M164.721,84.403c-0.801,0-1.201-0.399-1.201-1.2c0-2.784-0.895-4.831-2.688-6.144
		c-0.863-0.64-1.896-1.096-3.096-1.368c-1.199-0.271-2.52-0.408-3.961-0.408c-1.76,0-3.664,0.192-5.711,0.576
		c-0.607,0.128-1.24,0.264-1.896,0.408c-0.656,0.144-1.352,0.328-2.088,0.552v13.68c0,0.801-0.4,1.2-1.199,1.2
		c-0.32,0-0.609-0.111-0.865-0.336c-0.256-0.224-0.383-0.512-0.383-0.864V75.907l0.096-0.288l0.047-0.24l0.098-0.191l0.143-0.145
		l0.193-0.144l0.24-0.145c1.279-0.447,3.006-0.863,5.184-1.248c1.119-0.223,2.191-0.384,3.215-0.479
		c1.025-0.096,1.984-0.145,2.881-0.145c1.824,0,3.416,0.161,4.775,0.48c1.359,0.32,2.617,0.896,3.768,1.728
		c2.465,1.793,3.697,4.497,3.697,8.112C165.969,84.003,165.553,84.403,164.721,84.403z"/>
	<path fill="#FFFFFF" d="M192.129,90.787l-0.049,0.192l-0.145,0.191l-0.096,0.192l-0.191,0.144l-0.24,0.097
		c-0.961,0.319-2,0.615-3.119,0.888c-1.121,0.271-2.322,0.535-3.602,0.792c-2.463,0.512-4.703,0.768-6.719,0.768
		c-1.537,0-2.938-0.136-4.201-0.407c-1.264-0.272-2.344-0.729-3.24-1.368c-1.76-1.279-2.639-3.088-2.639-5.424
		c0-2.368,0.879-4.192,2.639-5.473c0.832-0.576,1.904-1.016,3.217-1.319s2.656-0.456,4.031-0.456c1.025,0,2.088,0.056,3.193,0.168
		c1.104,0.112,2.264,0.28,3.479,0.504c0.832,0.16,1.672,0.344,2.521,0.552c0.848,0.209,1.734,0.44,2.664,0.696
		c-0.609-4.16-3.809-6.24-9.602-6.24c-0.799,0-1.199-0.399-1.199-1.2c0-0.799,0.4-1.2,1.199-1.2c3.969,0,6.992,0.864,9.072,2.593
		c2.08,1.728,3.121,4.271,3.121,7.632v0.096v7.296L192.129,90.787z M189.775,84.067c-0.992-0.288-1.943-0.544-2.855-0.769
		c-0.912-0.223-1.783-0.415-2.615-0.575c-2.465-0.48-4.674-0.721-6.625-0.721c-1.279,0-2.393,0.104-3.336,0.312
		s-1.752,0.552-2.424,1.032c-1.057,0.832-1.584,2-1.584,3.504c0,1.536,0.527,2.688,1.584,3.456c0.641,0.448,1.48,0.784,2.52,1.008
		c1.041,0.224,2.137,0.336,3.289,0.336c1.023,0,2.07-0.056,3.145-0.168c1.07-0.112,2.199-0.28,3.383-0.504
		c0.865-0.16,1.752-0.352,2.664-0.576c0.912-0.224,1.863-0.496,2.855-0.816V84.067z"/>
	<path fill="#FFFFFF" d="M218.385,90.787l-0.049,0.192l-0.145,0.191l-0.096,0.192l-0.191,0.144l-0.24,0.097
		c-1.279,0.479-3.041,0.912-5.279,1.296c-1.09,0.224-2.129,0.384-3.121,0.479c-0.992,0.097-1.951,0.145-2.879,0.145
		c-1.824,0-3.416-0.161-4.777-0.48c-1.359-0.32-2.615-0.896-3.768-1.728c-2.465-1.792-3.695-4.496-3.695-8.112
		c0-3.615,1.23-6.319,3.695-8.112c1.088-0.799,2.377-1.367,3.863-1.703c1.488-0.337,3.098-0.505,4.824-0.505
		c1.346,0,2.832,0.113,4.465,0.336c1.633,0.225,3.312,0.576,5.039,1.057v-12.96c0-0.8,0.4-1.2,1.201-1.2
		c0.318,0,0.607,0.112,0.863,0.336c0.256,0.225,0.385,0.513,0.385,0.864v29.184L218.385,90.787z M216.031,76.819
		c-0.383-0.128-0.809-0.24-1.271-0.336c-0.465-0.096-0.969-0.208-1.512-0.336c-2.688-0.576-5.008-0.864-6.961-0.864
		c-1.439,0-2.752,0.137-3.936,0.408c-1.184,0.272-2.207,0.729-3.072,1.368c-1.791,1.312-2.688,3.359-2.688,6.144
		s0.896,4.832,2.688,6.145c0.865,0.64,1.896,1.096,3.098,1.367c1.199,0.272,2.52,0.408,3.959,0.408c1.729,0,3.631-0.191,5.713-0.576
		c0.607-0.127,1.238-0.264,1.895-0.407c0.656-0.145,1.352-0.328,2.088-0.553V76.819z"/>
	<path fill="#FFFFFF" d="M244.641,90.787l-0.049,0.192l-0.145,0.191l-0.096,0.192l-0.191,0.144l-0.24,0.097
		c-0.961,0.319-2,0.615-3.119,0.888c-1.121,0.271-2.322,0.535-3.602,0.792c-2.463,0.512-4.703,0.768-6.719,0.768
		c-1.537,0-2.938-0.136-4.201-0.407c-1.264-0.272-2.344-0.729-3.24-1.368c-1.76-1.279-2.639-3.088-2.639-5.424
		c0-2.368,0.879-4.192,2.639-5.473c0.832-0.576,1.904-1.016,3.217-1.319s2.656-0.456,4.031-0.456c1.025,0,2.088,0.056,3.193,0.168
		c1.104,0.112,2.264,0.28,3.479,0.504c0.832,0.16,1.672,0.344,2.521,0.552c0.848,0.209,1.734,0.44,2.664,0.696
		c-0.609-4.16-3.809-6.24-9.602-6.24c-0.799,0-1.199-0.399-1.199-1.2c0-0.799,0.4-1.2,1.199-1.2c3.969,0,6.992,0.864,9.072,2.593
		c2.08,1.728,3.121,4.271,3.121,7.632v0.096v7.296L244.641,90.787z M242.287,84.067c-0.992-0.288-1.943-0.544-2.855-0.769
		c-0.912-0.223-1.783-0.415-2.615-0.575c-2.465-0.48-4.674-0.721-6.625-0.721c-1.279,0-2.393,0.104-3.336,0.312
		s-1.752,0.552-2.424,1.032c-1.057,0.832-1.584,2-1.584,3.504c0,1.536,0.527,2.688,1.584,3.456c0.641,0.448,1.48,0.784,2.52,1.008
		c1.041,0.224,2.137,0.336,3.289,0.336c1.023,0,2.07-0.056,3.145-0.168c1.07-0.112,2.199-0.28,3.383-0.504
		c0.865-0.16,1.752-0.352,2.664-0.576c0.912-0.224,1.863-0.496,2.855-0.816V84.067z"/>
</g>
<g>
	<g>
		<g>
			<path fill-rule="evenodd" clip-rule="evenodd" fill="#E6E7E7" d="M118.623,49.639c0.438,0.427,0.889,0.841,1.312,1.281
				c1.807,1.872,1.954,3.373,0.564,5.592c-2.734,4.363-11.252,6.762-15.88,4.473c-4.729-2.34-7.717-9.529-6.037-14.564
				c0.301-0.901,0.672-1.777,0.894-2.705c-3,2.525-3.411,5.949-3.105,9.882c-2.979-1.447-4.539-3.705-5.038-6.616
				c-0.795-4.637,0.289-8.748,3.959-12.146c3.82,5.146,9.381,6.832,15.064,8.291c1.94,0.498,2.126,0.856,1.77,2.925
				c0.506-0.601,1.436-1.21,1.423-1.801c-0.02-0.947-0.435-2.124-1.104-2.755c-0.711-0.67-1.895-0.885-2.906-1.18
				c-5.132-1.493-9.261-4.233-11.522-9.267c-3.262-7.26,1.069-17.58,8.521-20.373c2.036-0.764,4.735-0.752,6.521,0.027
				c-0.379,2.54-1.4,4.08-4.429,6.589c3.25,0.066,5.241-1.649,6.674-4.15c0.55-0.96,0.865-2.061,1.228-3.119
				c2.145-6.294,8.466-8.803,14.354-5.684c7.256,3.844,9.857,9.824,8.197,18.877c-0.199,1.083-0.461,2.156-0.334,3.448
				c0.705-1.074,1.514-2.094,2.084-3.235c0.521-1.043,1.014-2.195,1.111-3.334c0.218-2.526,1.842-3.066,3.931-3.42
				c8.596-1.456,11.544,4.967,11.394,11.189c-0.104,4.314-2.908,7.435-7.345,8.159c-0.519-1.238-1.05-2.505-1.581-3.773
				c-0.113,0.006-0.227,0.011-0.34,0.016c-0.066,0.383-0.158,0.762-0.197,1.146c-0.534,5.387-3.499,8.947-9.577,8.249
				c-2.399-0.275-3.968,1.141-4.526,3.808c0.826-0.57,1.54-1.203,2.369-1.601c0.922-0.442,1.677-0.314,1.533,1.037
				c-0.236,2.209-1.182,3.956-3.221,4.972c-3.484,1.732-6.977,2.156-10.674,0.437c-1.508-0.702-3.285-0.821-4.942-1.208
				C118.719,49.285,118.67,49.462,118.623,49.639z"/>
			<path fill-rule="evenodd" clip-rule="evenodd" fill="#E6E7E7" d="M81.783,30.385c3.615,2.051,4.691,4.216,3.59,6.738
				c-1.604,3.668-5.117,5.249-9.06,3.997c0.103-0.509,0.208-1.031,0.313-1.553c-0.082-0.063-0.163-0.126-0.244-0.189
				c-0.759,0.886-1.493,1.795-2.281,2.655c-2.254,2.458-4.324,2.978-6.67,1.787c-3.998-2.03-5.057-6.036-1.258-10.129
				c0.309-0.332,1.096-0.311,1.658-0.297c1.117,0.026,2.232,0.164,3.393-0.111c-1.365-0.61-2.762-1.162-4.091-1.842
				c-3.671-1.883-5.782-6.336-4.952-10.354c0.418-2.019,1.662-3.486,3.479-4.271c2.67-1.153,5.458-1.727,8.303-0.447
				c0.176,0.079,0.366,0.12,0.551,0.178c0.113-0.231,0.227-0.464,0.34-0.696c-1.434-0.658-2.866-1.316-4.366-2.004
				c0.258-1.832,1.925-3.38,4.528-4.013c6.659-1.618,12.555,3.59,11.869,10.497c-0.1,1.001-0.38,1.992-0.406,2.991
				c-0.031,1.245,0.416,2.163,2.041,1.887c-0.818-0.814-0.994-4.005-0.012-5.251c0.91-1.585,3.795-1.797,4.689-2.193
				c-2.336,3.705-0.764,11.987,0.443,13.996c-1.358,2.048-2.595,3.107-5.016,2.178c-0.336-0.13-0.725-0.381-0.88-0.683
				C86.543,30.909,84.373,30.662,81.783,30.385z"/>
			<path fill-rule="evenodd" clip-rule="evenodd" fill="#E6E7E7" d="M184.223,38.347c-0.649-1.515-1.081-2.521-1.472-3.433
				c-0.375,2.158-0.399,4.409-1.199,6.342c-0.904,2.189-3.174,3.091-5.44,3.511c-3.654,0.677-5.958-0.97-8.304-5.898
				c-0.105,0.509-0.285,0.858-0.221,1.154c0.43,1.97-0.822,2.456-2.328,2.587c-1.048,0.091-2.143,0.105-3.166-0.101
				c-2.436-0.49-6.235-3.766-6.027-6.167c2.196-2.299,2.133-1.759,3.535-4.532c0.443-0.873-0.101-1.215,0.881-1.311
				c1.199-0.117,2.418-0.139,3.622-0.088c0.851,0.037,1.694,0.262,2.595,0.276c-4.48-2.641-5.908-6.744-5.803-11.573
				c0.021-0.983,0.275-2.005,0.624-2.934c1.149-3.058,3.178-4.232,6.339-3.43c3.378,0.856,6.475,0.736,9.486-1.252
				c1.812-1.195,3.976-0.666,5.179,1.156c2.864,4.335,2.812,9.02-1.075,13.21c-0.829,0.893-1.801,1.654-2.932,2.679
				c1.269-0.399,2.297-0.679,3.294-1.047c2.036-0.753,5.37,0.396,6.696,2.348c1.315,1.937,1.152,4.886-0.631,6.481
				C186.897,37.199,185.533,37.645,184.223,38.347z"/>
		</g>
	</g>
	<path fill-rule="evenodd" clip-rule="evenodd" fill="#F2BA1B" d="M120.249,40.937c0,0-2.193-9.177-8.224-11.628
		c6.131-2.782,10.243-8.636,10.229-14.238c-0.015-5.603,15.167-4.138,8.897,8.206C124.88,35.621,120.653,35.552,120.249,40.937z"/>
	<path fill-rule="evenodd" clip-rule="evenodd" fill="#F2BA1B" d="M171.413,30.306c0,0-4.617-4.151-2.412-7.651
		c2.205-3.499,8.244-4.352,9.385-2.959c1.141,1.393-2.208,5.932-2.498,10.766C175.595,35.295,172.671,31.691,171.413,30.306z"/>
	<path fill-rule="evenodd" clip-rule="evenodd" fill="#F2BA1B" d="M81.981,27.948c0,0-4.882,1.189-4.329,2.942
		c-4.562-2.241-8.443-7.326-3.217-10.2c3.396-0.896,3.92-2.017,4.217-3.297c0.297-1.281,6.353-0.46,3.803,5.391
		c0.375,1.742,0.701,4.443,1.17,4.821C84.096,27.982,81.981,27.948,81.981,27.948z"/>
</g>
</svg>
