<?xml version="1.0" encoding="utf-8"?>
<!-- Generator: Adobe Illustrator 16.0.0, SVG Export Plug-In . SVG Version: 6.00 Build 0)  -->
<!DOCTYPE svg PUBLIC "-//W3C//DTD SVG 1.1//EN" "http://www.w3.org/Graphics/SVG/1.1/DTD/svg11.dtd">
<svg version="1.1" id="Layer_1" xmlns="http://www.w3.org/2000/svg" xmlns:xlink="http://www.w3.org/1999/xlink" x="0px" y="0px"
	 width="228.066px" height="182.772px" viewBox="0 0 228.066 182.772" enable-background="new 0 0 228.066 182.772"
	 xml:space="preserve">
<g>
	<path fill="#FFFFFF" d="M164.438,182.772c-3.641,0-7.174-1.499-9.635-4.068l-36.721-36.613
		c-12.525,8.672-27.513,13.275-42.715,13.275C33.723,155.366,0,121.643,0,79.999S33.723,4.631,75.367,4.631
		c41.645,0,75.368,33.723,75.368,75.367c0,15.202-4.604,30.189-13.275,42.715l36.721,36.721c2.461,2.462,3.961,5.995,3.961,9.635
		C178.141,176.563,171.932,182.772,164.438,182.772z M75.367,32.038c-26.443,0-47.961,21.519-47.961,47.961
		s21.518,47.961,47.961,47.961s47.961-21.519,47.961-47.961S101.81,32.038,75.367,32.038z"/>
</g>
</svg>
